M48
; DRILL file {KiCad (6.0.5)} date Thu Oct 13 09:17:09 2022
; FORMAT={-:-/ absolute / inch / decimal}
; #@! TF.CreationDate,2022-10-13T09:17:09+09:00
; #@! TF.GenerationSoftware,Kicad,Pcbnew,(6.0.5)
; #@! TF.FileFunction,Plated,1,2,PTH
FMAT,2
INCH
; #@! TA.AperFunction,Plated,PTH,ViaDrill
T1C0.0157
; #@! TA.AperFunction,Plated,PTH,ComponentDrill
T2C0.0197
; #@! TA.AperFunction,Plated,PTH,ComponentDrill
T3C0.0236
; #@! TA.AperFunction,Plated,PTH,ComponentDrill
T4C0.0394
; #@! TA.AperFunction,Plated,PTH,ComponentDrill
T5C0.0472
; #@! TA.AperFunction,Plated,PTH,ComponentDrill
T6C0.1260
%
G90
G05
T1
X0.6417Y-3.5118
X0.6486Y-0.7943
X1.1181Y-1.1024
X1.2589Y-0.5866
X1.3563Y-2.0
X1.4272Y-2.2441
X1.4331Y-0.4685
X1.4331Y-0.5354
X1.4331Y-2.0039
X1.7205Y-0.4921
X1.7328Y-0.5472
X1.7638Y-0.4921
X1.8858Y-0.6811
X1.9843Y-0.4685
X2.0197Y-1.1732
X2.0236Y-1.1024
X2.065Y-2.0
X2.0915Y-0.5866
X2.1358Y-2.2441
X2.1417Y-2.0039
X2.1644Y-0.4685
X2.2638Y-1.1024
X2.2795Y-3.7165
X2.5197Y-3.7165
X2.6555Y-2.0
X2.6929Y-1.4528
X2.7264Y-2.2441
X2.7323Y-2.0039
X2.8189Y-0.9409
X3.0039Y-0.6024
X3.0039Y-1.2835
X3.3642Y-2.0
X3.435Y-2.2441
X3.4409Y-2.0039
X3.5039Y-0.5945
X3.5039Y-1.2835
X3.9547Y-2.0
X4.0039Y-0.5945
X4.0039Y-1.2835
X4.0256Y-2.2441
X4.0315Y-2.0039
X4.5039Y-1.2835
X4.5446Y-3.7965
X4.6634Y-2.0
X4.7047Y-0.5984
X4.7362Y-2.2441
X4.7402Y-2.0039
X4.8189Y-1.4528
X4.878Y-3.7165
X5.1181Y-3.7165
X5.1339Y-1.0984
X5.1339Y-1.1732
X5.1358Y-1.4921
X5.2018Y-0.5778
X5.2126Y-3.7874
X5.2126Y-3.8937
X5.2402Y-0.4803
X5.2559Y-2.0
X5.2746Y-0.5748
X5.3268Y-2.2441
X5.3307Y-2.0039
X5.9646Y-2.0
X6.0354Y-1.1732
X6.0354Y-2.2441
X6.0394Y-1.0984
X6.0394Y-2.0039
X6.1073Y-0.5748
X6.1801Y-0.5748
X6.2795Y-1.1024
T2
X0.315Y-0.3898
X0.315Y-3.815
X0.3426Y-0.323
X0.3426Y-0.4566
X0.3426Y-3.7481
X0.3426Y-3.8818
X0.4094Y-0.2953
X0.4094Y-0.4843
X0.4094Y-3.7205
X0.4094Y-3.9094
X0.4763Y-0.323
X0.4763Y-0.4566
X0.4763Y-3.7481
X0.4763Y-3.8818
X0.5039Y-0.3898
X0.5039Y-3.815
X6.8898Y-0.3898
X6.8898Y-3.815
X6.9174Y-0.323
X6.9174Y-0.4566
X6.9174Y-3.7481
X6.9174Y-3.8818
X6.9843Y-0.2953
X6.9843Y-0.4843
X6.9843Y-3.7205
X6.9843Y-3.9094
X7.0511Y-0.323
X7.0511Y-0.4566
X7.0511Y-3.7481
X7.0511Y-3.8818
X7.0787Y-0.3898
X7.0787Y-3.815
T4
X3.5669Y-0.3898
X3.6669Y-0.3898
X3.7669Y-0.3898
X3.8669Y-0.3898
T6
X0.4094Y-0.3898
X0.4094Y-3.815
X6.9843Y-0.3898
X6.9843Y-3.815
T3
G00X1.5386Y-0.1989
M15
G01X1.5386Y-0.2225
M16
G05
G00X1.5386Y-0.3536
M15
G01X1.5386Y-0.397
M16
G05
G00X1.8787Y-0.1989
M15
G01X1.8787Y-0.2225
M16
G05
G00X1.8787Y-0.3536
M15
G01X1.8787Y-0.397
M16
G05
T5
G00X4.576Y-0.9417
M15
G01X4.6154Y-0.9417
M16
G05
G00X4.7051Y-0.9024
M15
G01X4.7445Y-0.9024
M16
G05
G00X4.7059Y-0.9811
M15
G01X4.7453Y-0.9811
M16
G05
T0
M30
