%TF.GenerationSoftware,KiCad,Pcbnew,(6.0.5)*%
%TF.CreationDate,2022-10-13T09:17:03+09:00*%
%TF.ProjectId,Luka One___,4c756b61-204f-46e6-9566-5c5f2e6b6963,rev?*%
%TF.SameCoordinates,PX2f4d600PY1513820*%
%TF.FileFunction,Soldermask,Top*%
%TF.FilePolarity,Negative*%
%FSLAX46Y46*%
G04 Gerber Fmt 4.6, Leading zero omitted, Abs format (unit mm)*
G04 Created by KiCad (PCBNEW (6.0.5)) date 2022-10-13 09:17:03*
%MOMM*%
%LPD*%
G01*
G04 APERTURE LIST*
G04 Aperture macros list*
%AMRoundRect*
0 Rectangle with rounded corners*
0 $1 Rounding radius*
0 $2 $3 $4 $5 $6 $7 $8 $9 X,Y pos of 4 corners*
0 Add a 4 corners polygon primitive as box body*
4,1,4,$2,$3,$4,$5,$6,$7,$8,$9,$2,$3,0*
0 Add four circle primitives for the rounded corners*
1,1,$1+$1,$2,$3*
1,1,$1+$1,$4,$5*
1,1,$1+$1,$6,$7*
1,1,$1+$1,$8,$9*
0 Add four rect primitives between the rounded corners*
20,1,$1+$1,$2,$3,$4,$5,0*
20,1,$1+$1,$4,$5,$6,$7,0*
20,1,$1+$1,$6,$7,$8,$9,0*
20,1,$1+$1,$8,$9,$2,$3,0*%
G04 Aperture macros list end*
%ADD10C,1.900000*%
%ADD11C,5.050000*%
%ADD12C,3.050000*%
%ADD13C,1.600000*%
%ADD14C,0.800000*%
%ADD15C,6.400000*%
%ADD16R,1.700000X1.700000*%
%ADD17O,1.700000X1.700000*%
%ADD18C,0.650000*%
%ADD19O,1.000000X1.600000*%
%ADD20O,1.000000X2.100000*%
%ADD21RoundRect,0.300000X0.950000X-0.450000X0.950000X0.450000X-0.950000X0.450000X-0.950000X-0.450000X0*%
G04 APERTURE END LIST*
D10*
%TO.C,REF\u002A\u002A*%
X127900000Y-23900000D03*
D11*
X133400000Y-23900000D03*
D12*
X133400000Y-18000000D03*
X138400000Y-20100000D03*
D13*
X128400000Y-29050000D03*
D10*
X138900000Y-23900000D03*
%TD*%
%TO.C,Kailh PG1354*%
X66379999Y-89953850D03*
D12*
X60879999Y-84053850D03*
X65879999Y-86153850D03*
D13*
X55879999Y-95103850D03*
D11*
X60879999Y-89953850D03*
D10*
X55379999Y-89953850D03*
%TD*%
D11*
%TO.C,REF\u002A\u002A*%
X31400000Y-23900000D03*
D10*
X36900000Y-23900000D03*
D12*
X36400000Y-20100000D03*
X31400000Y-18000000D03*
D10*
X25900000Y-23900000D03*
D13*
X26400000Y-29050000D03*
%TD*%
D12*
%TO.C,Kailh PG1352*%
X115399999Y-48143850D03*
D11*
X110399999Y-51943850D03*
D10*
X104899999Y-51943850D03*
D12*
X110399999Y-46043850D03*
D10*
X115899999Y-51943850D03*
D13*
X105399999Y-57093850D03*
%TD*%
D12*
%TO.C,REF\u002A\u002A*%
X59400000Y-20100000D03*
D11*
X54400000Y-23900000D03*
D12*
X54400000Y-18000000D03*
D13*
X49400000Y-29050000D03*
D10*
X48900000Y-23900000D03*
X59900000Y-23900000D03*
%TD*%
D14*
%TO.C,REF\u002A\u002A*%
X179799999Y-9900000D03*
X175702943Y-11597056D03*
X177399999Y-7500000D03*
X175702943Y-8202944D03*
D15*
X177399999Y-9900000D03*
D14*
X177399999Y-12300000D03*
X174999999Y-9900000D03*
X179097055Y-8202944D03*
X179097055Y-11597056D03*
%TD*%
%TO.C,REF\u002A\u002A*%
X12800000Y-9900000D03*
X10400000Y-7500000D03*
X12097056Y-11597056D03*
D15*
X10400000Y-9900000D03*
D14*
X8000000Y-9900000D03*
X12097056Y-8202944D03*
X8702944Y-11597056D03*
X10400000Y-12300000D03*
X8702944Y-8202944D03*
%TD*%
D12*
%TO.C,REF\u002A\u002A*%
X156400000Y-18000000D03*
D10*
X161900000Y-23900000D03*
D12*
X161400000Y-20100000D03*
D13*
X151400000Y-29050000D03*
D10*
X150900000Y-23900000D03*
D11*
X156400000Y-23900000D03*
%TD*%
D14*
%TO.C,REF\u002A\u002A*%
X10400000Y-99300000D03*
X8000000Y-96900000D03*
X12097056Y-95202944D03*
X10400000Y-94500000D03*
X12097056Y-98597056D03*
X12800000Y-96900000D03*
X8702944Y-95202944D03*
D15*
X10400000Y-96900000D03*
D14*
X8702944Y-98597056D03*
%TD*%
D13*
%TO.C,Kailh PG1354*%
X121879999Y-95103850D03*
D11*
X126879999Y-89953850D03*
D12*
X131879999Y-86153850D03*
X126879999Y-84053850D03*
D10*
X121379999Y-89953850D03*
X132379999Y-89953850D03*
%TD*%
D13*
%TO.C,Kailh PG1353*%
X138399999Y-57093850D03*
D11*
X143399999Y-51943850D03*
D10*
X137899999Y-51943850D03*
D12*
X143399999Y-46043850D03*
D10*
X148899999Y-51943850D03*
D12*
X148399999Y-48143850D03*
%TD*%
D16*
%TO.C,J2*%
X90600000Y-9900000D03*
D17*
X93140000Y-9900000D03*
X95680000Y-9900000D03*
X98220000Y-9900000D03*
%TD*%
D12*
%TO.C,Kailh PG1351*%
X77399999Y-46043850D03*
X82399999Y-48143850D03*
D11*
X77399999Y-51943850D03*
D10*
X82899999Y-51943850D03*
D13*
X72399999Y-57093850D03*
D10*
X71899999Y-51943850D03*
%TD*%
D14*
%TO.C,REF\u002A\u002A*%
X175702943Y-98597056D03*
X177399999Y-99300000D03*
X174999999Y-96900000D03*
X175702943Y-95202944D03*
X179097055Y-98597056D03*
X179799999Y-96900000D03*
X179097055Y-95202944D03*
D15*
X177399999Y-96900000D03*
D14*
X177399999Y-94500000D03*
%TD*%
D10*
%TO.C,Kailh PG1350*%
X38899999Y-51943850D03*
X49899999Y-51943850D03*
D11*
X44399999Y-51943850D03*
D12*
X44399999Y-46043850D03*
D13*
X39399999Y-57093850D03*
D12*
X49399999Y-48143850D03*
%TD*%
D18*
%TO.C,J1*%
X40510000Y-9002601D03*
X46290000Y-9002601D03*
D19*
X39080000Y-5352601D03*
D20*
X39080000Y-9532601D03*
D19*
X47720000Y-5352601D03*
D20*
X47720000Y-9532601D03*
%TD*%
D21*
%TO.C,U1*%
X116730000Y-23920000D03*
X120010000Y-22920000D03*
X120030000Y-24920000D03*
%TD*%
M02*
