%TF.GenerationSoftware,KiCad,Pcbnew,(6.0.5)*%
%TF.CreationDate,2022-10-13T09:17:03+09:00*%
%TF.ProjectId,Luka One___,4c756b61-204f-46e6-9566-5c5f2e6b6963,rev?*%
%TF.SameCoordinates,PX2f4d600PY1513820*%
%TF.FileFunction,Soldermask,Bot*%
%TF.FilePolarity,Negative*%
%FSLAX46Y46*%
G04 Gerber Fmt 4.6, Leading zero omitted, Abs format (unit mm)*
G04 Created by KiCad (PCBNEW (6.0.5)) date 2022-10-13 09:17:03*
%MOMM*%
%LPD*%
G01*
G04 APERTURE LIST*
G04 Aperture macros list*
%AMRoundRect*
0 Rectangle with rounded corners*
0 $1 Rounding radius*
0 $2 $3 $4 $5 $6 $7 $8 $9 X,Y pos of 4 corners*
0 Add a 4 corners polygon primitive as box body*
4,1,4,$2,$3,$4,$5,$6,$7,$8,$9,$2,$3,0*
0 Add four circle primitives for the rounded corners*
1,1,$1+$1,$2,$3*
1,1,$1+$1,$4,$5*
1,1,$1+$1,$6,$7*
1,1,$1+$1,$8,$9*
0 Add four rect primitives between the rounded corners*
20,1,$1+$1,$2,$3,$4,$5,0*
20,1,$1+$1,$4,$5,$6,$7,0*
20,1,$1+$1,$6,$7,$8,$9,0*
20,1,$1+$1,$8,$9,$2,$3,0*%
%AMFreePoly0*
4,1,5,0.750000,-0.395000,-0.750000,-0.395000,-0.750000,0.395000,0.750000,0.395000,0.750000,-0.395000,0.750000,-0.395000,$1*%
G04 Aperture macros list end*
%ADD10C,1.900000*%
%ADD11C,5.050000*%
%ADD12C,3.050000*%
%ADD13C,1.600000*%
%ADD14RoundRect,0.250000X-1.025000X-1.000000X1.025000X-1.000000X1.025000X1.000000X-1.025000X1.000000X0*%
%ADD15R,0.790000X1.500000*%
%ADD16RoundRect,0.197500X-0.197500X0.552500X-0.197500X-0.552500X0.197500X-0.552500X0.197500X0.552500X0*%
%ADD17FreePoly0,270.000000*%
%ADD18R,1.500000X0.790000*%
%ADD19RoundRect,0.197500X-0.552500X-0.197500X0.552500X-0.197500X0.552500X0.197500X-0.552500X0.197500X0*%
%ADD20FreePoly0,0.000000*%
%ADD21C,0.800000*%
%ADD22C,6.400000*%
%ADD23R,1.700000X1.700000*%
%ADD24O,1.700000X1.700000*%
%ADD25R,0.800000X0.550000*%
%ADD26R,0.800000X0.800000*%
%ADD27R,0.800000X0.450000*%
%ADD28R,0.800000X0.600000*%
%ADD29RoundRect,0.250000X0.250000X0.475000X-0.250000X0.475000X-0.250000X-0.475000X0.250000X-0.475000X0*%
%ADD30RoundRect,0.150000X-0.512500X-0.150000X0.512500X-0.150000X0.512500X0.150000X-0.512500X0.150000X0*%
%ADD31R,0.550000X0.800000*%
%ADD32R,0.450000X0.800000*%
%ADD33R,0.600000X0.800000*%
%ADD34RoundRect,0.250000X-0.262500X-0.450000X0.262500X-0.450000X0.262500X0.450000X-0.262500X0.450000X0*%
%ADD35RoundRect,0.250000X-0.525000X-0.250000X0.525000X-0.250000X0.525000X0.250000X-0.525000X0.250000X0*%
%ADD36RoundRect,0.250000X0.450000X-0.262500X0.450000X0.262500X-0.450000X0.262500X-0.450000X-0.262500X0*%
%ADD37C,0.650000*%
%ADD38R,0.600000X1.450000*%
%ADD39R,0.300000X1.450000*%
%ADD40O,1.000000X1.600000*%
%ADD41O,1.000000X2.100000*%
%ADD42R,1.700000X3.500000*%
%ADD43R,3.500000X1.700000*%
%ADD44RoundRect,0.300000X0.950000X-0.450000X0.950000X0.450000X-0.950000X0.450000X-0.950000X-0.450000X0*%
G04 APERTURE END LIST*
D10*
%TO.C,REF\u002A\u002A*%
X127900000Y-23900000D03*
D11*
X133400000Y-23900000D03*
D12*
X133400000Y-18000000D03*
X138400000Y-20100000D03*
D13*
X128400000Y-29050000D03*
D10*
X138900000Y-23900000D03*
D14*
X129900000Y-17900000D03*
X141900000Y-20100000D03*
%TD*%
D10*
%TO.C,Kailh PG1354*%
X66379999Y-89953850D03*
D12*
X60879999Y-84053850D03*
X65879999Y-86153850D03*
D13*
X55879999Y-95103850D03*
D11*
X60879999Y-89953850D03*
D10*
X55379999Y-89953850D03*
D14*
X57379999Y-83953850D03*
X69379999Y-86153850D03*
%TD*%
D11*
%TO.C,REF\u002A\u002A*%
X31400000Y-23900000D03*
D10*
X36900000Y-23900000D03*
D12*
X36400000Y-20100000D03*
X31400000Y-18000000D03*
D10*
X25900000Y-23900000D03*
D13*
X26400000Y-29050000D03*
D14*
X27900000Y-17900000D03*
X39900000Y-20100000D03*
%TD*%
D12*
%TO.C,Kailh PG1352*%
X115399999Y-48143850D03*
D11*
X110399999Y-51943850D03*
D10*
X104899999Y-51943850D03*
D12*
X110399999Y-46043850D03*
D10*
X115899999Y-51943850D03*
D13*
X105399999Y-57093850D03*
D14*
X106899999Y-45943850D03*
X118899999Y-48143850D03*
%TD*%
D15*
%TO.C,REF\u002A\u002A3*%
X135310000Y-56590000D03*
X133490000Y-56600000D03*
D16*
X133490000Y-51200000D03*
D17*
X135310000Y-51200000D03*
%TD*%
D15*
%TO.C,REF\u002A\u002A10*%
X54310000Y-56590000D03*
X52490000Y-56600000D03*
D16*
X52490000Y-51200000D03*
D17*
X54310000Y-51200000D03*
%TD*%
D12*
%TO.C,REF\u002A\u002A*%
X59400000Y-20100000D03*
D11*
X54400000Y-23900000D03*
D12*
X54400000Y-18000000D03*
D13*
X49400000Y-29050000D03*
D10*
X48900000Y-23900000D03*
X59900000Y-23900000D03*
D14*
X50900000Y-17900000D03*
X62900000Y-20100000D03*
%TD*%
D15*
%TO.C,REF\u002A\u002A7*%
X69310000Y-56590000D03*
X67490000Y-56600000D03*
D16*
X67490000Y-51200000D03*
D17*
X69310000Y-51200000D03*
%TD*%
D18*
%TO.C,REF\u002A\u002A3*%
X34090000Y-27990000D03*
X34100000Y-29810000D03*
D19*
X28700000Y-29810000D03*
D20*
X28700000Y-27990000D03*
%TD*%
D21*
%TO.C,REF\u002A\u002A*%
X179799999Y-9900000D03*
X175702943Y-11597056D03*
X177399999Y-7500000D03*
X175702943Y-8202944D03*
D22*
X177399999Y-9900000D03*
D21*
X177399999Y-12300000D03*
X174999999Y-9900000D03*
X179097055Y-8202944D03*
X179097055Y-11597056D03*
%TD*%
%TO.C,REF\u002A\u002A*%
X12800000Y-9900000D03*
X10400000Y-7500000D03*
X12097056Y-11597056D03*
D22*
X10400000Y-9900000D03*
D21*
X8000000Y-9900000D03*
X12097056Y-8202944D03*
X8702944Y-11597056D03*
X10400000Y-12300000D03*
X8702944Y-8202944D03*
%TD*%
D15*
%TO.C,REF\u002A\u002A6*%
X120310000Y-56590000D03*
X118490000Y-56600000D03*
D16*
X118490000Y-51200000D03*
D17*
X120310000Y-51200000D03*
%TD*%
D12*
%TO.C,REF\u002A\u002A*%
X156400000Y-18000000D03*
D10*
X161900000Y-23900000D03*
D12*
X161400000Y-20100000D03*
D13*
X151400000Y-29050000D03*
D10*
X150900000Y-23900000D03*
D11*
X156400000Y-23900000D03*
D14*
X152900000Y-17900000D03*
X164900000Y-20100000D03*
%TD*%
D21*
%TO.C,REF\u002A\u002A*%
X10400000Y-99300000D03*
X8000000Y-96900000D03*
X12097056Y-95202944D03*
X10400000Y-94500000D03*
X12097056Y-98597056D03*
X12800000Y-96900000D03*
X8702944Y-95202944D03*
D22*
X10400000Y-96900000D03*
D21*
X8702944Y-98597056D03*
%TD*%
D15*
%TO.C,REF\u002A\u002A8*%
X87310000Y-56590000D03*
X85490000Y-56600000D03*
D16*
X85490000Y-51200000D03*
D17*
X87310000Y-51200000D03*
%TD*%
D18*
%TO.C,REF\u002A\u002A3*%
X57090000Y-27990000D03*
X57100000Y-29810000D03*
D19*
X51700000Y-29810000D03*
D20*
X51700000Y-27990000D03*
%TD*%
D15*
%TO.C,REF\u002A\u002A9*%
X36310000Y-56590000D03*
X34490000Y-56600000D03*
D16*
X34490000Y-51200000D03*
D17*
X36310000Y-51200000D03*
%TD*%
D15*
%TO.C,REF\u002A\u002A5*%
X102310000Y-56590000D03*
X100490000Y-56600000D03*
D16*
X100490000Y-51200000D03*
D17*
X102310000Y-51200000D03*
%TD*%
D13*
%TO.C,Kailh PG1354*%
X121879999Y-95103850D03*
D11*
X126879999Y-89953850D03*
D12*
X131879999Y-86153850D03*
X126879999Y-84053850D03*
D10*
X121379999Y-89953850D03*
X132379999Y-89953850D03*
D14*
X123379999Y-83953850D03*
X135379999Y-86153850D03*
%TD*%
D13*
%TO.C,Kailh PG1353*%
X138399999Y-57093850D03*
D11*
X143399999Y-51943850D03*
D10*
X137899999Y-51943850D03*
D12*
X143399999Y-46043850D03*
D10*
X148899999Y-51943850D03*
D12*
X148399999Y-48143850D03*
D14*
X139899999Y-45943850D03*
X151899999Y-48143850D03*
%TD*%
D18*
%TO.C,REF\u002A\u002A3*%
X159090000Y-27990000D03*
X159100000Y-29810000D03*
D19*
X153700000Y-29810000D03*
D20*
X153700000Y-27990000D03*
%TD*%
D18*
%TO.C,REF\u002A\u002A4*%
X129596006Y-94397420D03*
X129606006Y-96217420D03*
D19*
X124206006Y-96217420D03*
D20*
X124206006Y-94397420D03*
%TD*%
D18*
%TO.C,REF\u002A\u002A3*%
X136090000Y-27990000D03*
X136100000Y-29810000D03*
D19*
X130700000Y-29810000D03*
D20*
X130700000Y-27990000D03*
%TD*%
D18*
%TO.C,REF\u002A\u002A*%
X63596006Y-94397420D03*
X63606006Y-96217420D03*
D19*
X58206006Y-96217420D03*
D20*
X58206006Y-94397420D03*
%TD*%
D23*
%TO.C,J2*%
X90600000Y-9900000D03*
D24*
X93140000Y-9900000D03*
X95680000Y-9900000D03*
X98220000Y-9900000D03*
%TD*%
D12*
%TO.C,Kailh PG1351*%
X77399999Y-46043850D03*
X82399999Y-48143850D03*
D11*
X77399999Y-51943850D03*
D10*
X82899999Y-51943850D03*
D13*
X72399999Y-57093850D03*
D10*
X71899999Y-51943850D03*
D14*
X73899999Y-45943850D03*
X85899999Y-48143850D03*
%TD*%
D21*
%TO.C,REF\u002A\u002A*%
X175702943Y-98597056D03*
X177399999Y-99300000D03*
X174999999Y-96900000D03*
X175702943Y-95202944D03*
X179097055Y-98597056D03*
X179799999Y-96900000D03*
X179097055Y-95202944D03*
D22*
X177399999Y-96900000D03*
D21*
X177399999Y-94500000D03*
%TD*%
D15*
%TO.C,REF\u002A\u002A3*%
X153310000Y-56590000D03*
X151490000Y-56600000D03*
D16*
X151490000Y-51200000D03*
D17*
X153310000Y-51200000D03*
%TD*%
D10*
%TO.C,Kailh PG1350*%
X38899999Y-51943850D03*
X49899999Y-51943850D03*
D11*
X44399999Y-51943850D03*
D12*
X44399999Y-46043850D03*
D13*
X39399999Y-57093850D03*
D12*
X49399999Y-48143850D03*
D14*
X40899999Y-45943850D03*
X52899999Y-48143850D03*
%TD*%
D25*
%TO.C,LED12*%
X173775000Y-37625000D03*
D26*
X173775000Y-38600000D03*
D27*
X173775000Y-39475000D03*
D28*
X173775000Y-40300000D03*
%TD*%
D25*
%TO.C,LED2*%
X15025000Y-40175000D03*
D26*
X15025000Y-39200000D03*
D27*
X15025000Y-38325000D03*
D28*
X15025000Y-37500000D03*
%TD*%
D29*
%TO.C,C1*%
X132350000Y-37900000D03*
X130450000Y-37900000D03*
%TD*%
D25*
%TO.C,LED9*%
X173775000Y-67625000D03*
D26*
X173775000Y-68600000D03*
D27*
X173775000Y-69475000D03*
D28*
X173775000Y-70300000D03*
%TD*%
D25*
%TO.C,LED5*%
X15025000Y-70175000D03*
D26*
X15025000Y-69200000D03*
D27*
X15025000Y-68325000D03*
D28*
X15025000Y-67500000D03*
%TD*%
D30*
%TO.C,U2*%
X124482500Y-37850000D03*
X124482500Y-36900000D03*
X124482500Y-35950000D03*
X126757500Y-35950000D03*
X126757500Y-37850000D03*
%TD*%
D25*
%TO.C,LED7*%
X15025000Y-90175000D03*
D26*
X15025000Y-89200000D03*
D27*
X15025000Y-88325000D03*
D28*
X15025000Y-87500000D03*
%TD*%
D31*
%TO.C,LED14*%
X30125000Y-13525000D03*
D26*
X31100000Y-13525000D03*
D32*
X31975000Y-13525000D03*
D33*
X32800000Y-13525000D03*
%TD*%
D31*
%TO.C,LED14*%
X132125000Y-13525000D03*
D26*
X133100000Y-13525000D03*
D32*
X133975000Y-13525000D03*
D33*
X134800000Y-13525000D03*
%TD*%
D34*
%TO.C,R1*%
X46487500Y-13900000D03*
X48312500Y-13900000D03*
%TD*%
%TO.C,R5*%
X130467500Y-35900000D03*
X132292500Y-35900000D03*
%TD*%
D35*
%TO.C,REF\u002A\u002A*%
X147801131Y-6370103D03*
X153051131Y-6370103D03*
X147801131Y-4670103D03*
X153051131Y-4670103D03*
%TD*%
D36*
%TO.C,R4*%
X93662500Y-21812500D03*
X93662500Y-19987500D03*
%TD*%
D31*
%TO.C,LED14*%
X140675000Y-96275000D03*
D26*
X139700000Y-96275000D03*
D32*
X138825000Y-96275000D03*
D33*
X138000000Y-96275000D03*
%TD*%
D25*
%TO.C,LED*%
X173775000Y-87625000D03*
D26*
X173775000Y-88600000D03*
D27*
X173775000Y-89475000D03*
D28*
X173775000Y-90300000D03*
%TD*%
D31*
%TO.C,LED14*%
X53125000Y-13525000D03*
D26*
X54100000Y-13525000D03*
D32*
X54975000Y-13525000D03*
D33*
X55800000Y-13525000D03*
%TD*%
D36*
%TO.C,R3*%
X95400000Y-21812500D03*
X95400000Y-19987500D03*
%TD*%
D25*
%TO.C,LED*%
X15025000Y-20175000D03*
D26*
X15025000Y-19200000D03*
D27*
X15025000Y-18325000D03*
D28*
X15025000Y-17500000D03*
%TD*%
D25*
%TO.C,LED13*%
X173775000Y-27625000D03*
D26*
X173775000Y-28600000D03*
D27*
X173775000Y-29475000D03*
D28*
X173775000Y-30300000D03*
%TD*%
D34*
%TO.C,R2*%
X42187500Y-13900000D03*
X44012500Y-13900000D03*
%TD*%
D25*
%TO.C,LED4*%
X15025000Y-60175000D03*
D26*
X15025000Y-59200000D03*
D27*
X15025000Y-58325000D03*
D28*
X15025000Y-57500000D03*
%TD*%
D31*
%TO.C,LED14*%
X155125000Y-13525000D03*
D26*
X156100000Y-13525000D03*
D32*
X156975000Y-13525000D03*
D33*
X157800000Y-13525000D03*
%TD*%
D25*
%TO.C,LED14*%
X173775000Y-17625000D03*
D26*
X173775000Y-18600000D03*
D27*
X173775000Y-19475000D03*
D28*
X173775000Y-20300000D03*
%TD*%
D25*
%TO.C,LED6*%
X15025000Y-80175000D03*
D26*
X15025000Y-79200000D03*
D27*
X15025000Y-78325000D03*
D28*
X15025000Y-77500000D03*
%TD*%
D25*
%TO.C,LED3*%
X15025000Y-50175000D03*
D26*
X15025000Y-49200000D03*
D27*
X15025000Y-48325000D03*
D28*
X15025000Y-47500000D03*
%TD*%
D25*
%TO.C,LED1*%
X15025000Y-30175000D03*
D26*
X15025000Y-29200000D03*
D27*
X15025000Y-28325000D03*
D28*
X15025000Y-27500000D03*
%TD*%
D31*
%TO.C,LED14*%
X49675000Y-96275000D03*
D26*
X48700000Y-96275000D03*
D32*
X47825000Y-96275000D03*
D33*
X47000000Y-96275000D03*
%TD*%
D25*
%TO.C,LED11*%
X173775000Y-47625000D03*
D26*
X173775000Y-48600000D03*
D27*
X173775000Y-49475000D03*
D28*
X173775000Y-50300000D03*
%TD*%
D25*
%TO.C,LED10*%
X173775000Y-57625000D03*
D26*
X173775000Y-58600000D03*
D27*
X173775000Y-59475000D03*
D28*
X173775000Y-60300000D03*
%TD*%
D37*
%TO.C,J1*%
X40510000Y-9002601D03*
X46290000Y-9002601D03*
D38*
X40150000Y-10447601D03*
X40950000Y-10447601D03*
D39*
X42150000Y-10447601D03*
X43150000Y-10447601D03*
X43650000Y-10447601D03*
X44650000Y-10447601D03*
D38*
X45850000Y-10447601D03*
X46650000Y-10447601D03*
X46650000Y-10447601D03*
X45850000Y-10447601D03*
D39*
X45150000Y-10447601D03*
X44150000Y-10447601D03*
X42650000Y-10447601D03*
X41650000Y-10447601D03*
D38*
X40950000Y-10447601D03*
X40150000Y-10447601D03*
D40*
X39080000Y-5352601D03*
D41*
X39080000Y-9532601D03*
D40*
X47720000Y-5352601D03*
D41*
X47720000Y-9532601D03*
%TD*%
D25*
%TO.C,LED8*%
X173775000Y-77625000D03*
D26*
X173775000Y-78600000D03*
D27*
X173775000Y-79475000D03*
D28*
X173775000Y-80300000D03*
%TD*%
D42*
%TO.C,U1*%
X119490000Y-33710000D03*
X116950000Y-33710000D03*
X114410000Y-33710000D03*
X111870000Y-33710000D03*
X109330000Y-33710000D03*
X106790000Y-33710000D03*
X104250000Y-33710000D03*
X101710000Y-33710000D03*
X99170000Y-33710000D03*
X96630000Y-33710000D03*
X94090000Y-33710000D03*
X91550000Y-33710000D03*
X89010000Y-33710000D03*
X86470000Y-33710000D03*
X83930000Y-33710000D03*
X81390000Y-33710000D03*
X78850000Y-33710000D03*
X76310000Y-33710000D03*
X73770000Y-33710000D03*
X71230000Y-33710000D03*
X71230000Y-14130000D03*
X73770000Y-14130000D03*
X76310000Y-14130000D03*
X78850000Y-14130000D03*
X81390000Y-14130000D03*
X83930000Y-14130000D03*
X86470000Y-14130000D03*
X89010000Y-14130000D03*
X91550000Y-14130000D03*
X94090000Y-14130000D03*
X96630000Y-14130000D03*
X99170000Y-14130000D03*
X101710000Y-14130000D03*
X104250000Y-14130000D03*
X106790000Y-14130000D03*
X109330000Y-14130000D03*
X111870000Y-14130000D03*
X114410000Y-14130000D03*
X116950000Y-14130000D03*
X119490000Y-14130000D03*
D43*
X70560000Y-26460000D03*
X70560000Y-23920000D03*
X70560000Y-21380000D03*
D44*
X116730000Y-23920000D03*
X120010000Y-22920000D03*
X120030000Y-24920000D03*
%TD*%
M02*
