M48
; DRILL file {KiCad (6.0.5)} date Thu Oct 13 09:17:09 2022
; FORMAT={-:-/ absolute / inch / decimal}
; #@! TF.CreationDate,2022-10-13T09:17:09+09:00
; #@! TF.GenerationSoftware,Kicad,Pcbnew,(6.0.5)
; #@! TF.FileFunction,NonPlated,1,2,NPTH
FMAT,2
INCH
; #@! TA.AperFunction,NonPlated,NPTH,ComponentDrill
T1C0.0256
; #@! TA.AperFunction,NonPlated,NPTH,ComponentDrill
T2C0.0630
; #@! TA.AperFunction,NonPlated,NPTH,ComponentDrill
T3C0.0748
; #@! TA.AperFunction,NonPlated,NPTH,ComponentDrill
T4C0.1201
; #@! TA.AperFunction,NonPlated,NPTH,ComponentDrill
T5C0.1988
%
G90
G05
T1
X1.5949Y-0.3544
X1.8224Y-0.3544
T2
X1.0394Y-1.1437
X1.5512Y-2.2478
X1.9449Y-1.1437
X2.2Y-3.7442
X2.8504Y-2.2478
X4.1496Y-2.2478
X4.7984Y-3.7442
X5.0551Y-1.1437
X5.4488Y-2.2478
X5.9606Y-1.1437
T3
X1.0197Y-0.9409
X1.4528Y-0.9409
X1.5315Y-2.045
X1.9252Y-0.9409
X1.9646Y-2.045
X2.1803Y-3.5415
X2.3583Y-0.9409
X2.6134Y-3.5415
X2.8307Y-2.045
X3.2638Y-2.045
X4.1299Y-2.045
X4.563Y-2.045
X4.7787Y-3.5415
X5.0354Y-0.9409
X5.2118Y-3.5415
X5.4291Y-2.045
X5.4685Y-0.9409
X5.8622Y-2.045
X5.9409Y-0.9409
X6.374Y-0.9409
T4
X1.2362Y-0.7087
X1.4331Y-0.7913
X1.748Y-1.8127
X1.9449Y-1.8954
X2.1417Y-0.7087
X2.3386Y-0.7913
X2.3969Y-3.3092
X2.5937Y-3.3919
X3.0472Y-1.8127
X3.2441Y-1.8954
X4.3465Y-1.8127
X4.5433Y-1.8954
X4.9953Y-3.3092
X5.1921Y-3.3919
X5.252Y-0.7087
X5.4488Y-0.7913
X5.6457Y-1.8127
X5.8425Y-1.8954
X6.1575Y-0.7087
X6.3543Y-0.7913
T5
X1.2362Y-0.9409
X1.748Y-2.045
X2.1417Y-0.9409
X2.3969Y-3.5415
X3.0472Y-2.045
X4.3465Y-2.045
X4.9953Y-3.5415
X5.252Y-0.9409
X5.6457Y-2.045
X6.1575Y-0.9409
T0
M30
